<svg version="1.1" xmlns="http://www.w3.org/2000/svg" width="130" height="51" style=""><path fill="#" d="M15.5537109375,33.076171875q-0.0087890625-0.263671875-0.0087890625-0.52734375q0-0.826171875,0.087890625-1.6611328125q0.10546875-1.107421875,0.140625-2.1796875q0.03515625-1.2568359375,0.10546875-2.6103515625q0.0439453125-0.73828125,0.0439453125-1.458984375q0-0.5888671875-0.0263671875-1.1689453125q0.087890625-0.2021484375,0.23291015625-0.2724609375t0.36474609375-0.0703125q0.10546875,0,0.22412109375,0.017578125t0.20654296875,0.087890625q0.123046875,0.017578125,0.30322265625,0.03515625t0.27685546875,0.10546875q0.03515625,0.052734375,0.18017578125,0.3603515625t0.3427734375,0.7470703125t0.4130859375,0.95361328125t0.4130859375,0.9755859375t0.3427734375,0.81298828125t0.18017578125,0.439453125q0.826171875-1.494140625,1.6171875-3.07177734375t1.7314453125-2.97509765625q0.087890625-0.123046875,0.30322265625-0.18017578125t0.35595703125-0.05712890625q0.3779296875,0,0.54931640625,0.18017578125t0.22412109375,0.46142578125q0.03515625,0.17578125,0.0439453125,0.3779296875q0.0087890625,0.10546875-0.0087890625,0.2197265625q-0.03515625,0.3251953125-0.03515625,0.615234375q0,2.0478515625-0.140625,4.06494140625t-0.2548828125,4.07373046875q-0.017578125,0.421875-0.017578125,0.87890625t0.017578125,0.94921875q0.0087890625,0.17578125,0.0087890625,0.3427734375q0,0.7734375-0.1318359375,1.44140625q-0.123046875,0.2021484375-0.404296875,0.2548828125t-0.474609375,0.052734375q-0.4130859375,0-0.791015625-0.193359375l-0.0966796875-0.1142578125l-0.03515625-0.140625t-0.017578125-0.140625q0-1.2744140625,0.09228515625-2.56640625t0.20654296875-2.57958984375t0.24169921875-2.57080078125t0.21533203125-2.56640625q-0.5185546875,0.861328125-1.00634765625,1.75341796875t-0.91845703125,1.81494140625q-0.158203125,0.3603515625-0.30322265625,0.7734375t-0.34716796875,0.73828125q-0.10546875,0.158203125-0.35595703125,0.193359375t-0.43505859375,0.03515625q-0.17578125,0-0.36474609375-0.0615234375t-0.25927734375-0.263671875q-0.3251953125-0.9931640625-0.6943359375-1.9423828125t-0.7470703125-1.9248046875q0,0.650390625,0.0263671875,1.68310546875t0.0263671875,2.14013671875t-0.03515625,2.1181640625t-0.1669921875,1.599609375q-0.03515625,0.2197265625-0.28564453125,0.2724609375t-0.43505859375,0.052734375q-0.140625,0-0.26806640625-0.017578125t-0.25048828125-0.0703125z M25.939482421875,34.2978515625q0-0.052734375,0.03515625-0.37353515625t0.09228515625-0.7822265625t0.12744140625-0.9931640625t0.123046875-1.00634765625t0.09228515625-0.8349609375t0.03955078125-0.4833984375q-0.0703125-0.03515625-0.17138671875-0.10107421875t-0.10107421875-0.15380859375q0-0.123046875,0.11865234375-0.19775390625t0.20654296875-0.10986328125q0.03515625-0.4482421875,0.087890625-1.248046875t0.16259765625-1.72705078125t0.3076171875-1.880859375t0.52294921875-1.7314453125t0.7822265625-1.27001953125t1.125-0.4921875t1.107421875,0.421875t0.71630859375,1.0986328125t0.421875,1.5029296875t0.2197265625,1.6435546875t0.09228515625,1.529296875t0.03515625,1.142578125q0.017578125,0.2724609375,0.1318359375,0.36474609375t0.25048828125,0.12744140625t0.24609375,0.0791015625t0.10986328125,0.2197265625q0,0.2021484375-0.24609375,0.28125t-0.38671875,0.0966796875q0.087890625,1.0986328125,0.24169921875,2.162109375t0.40869140625,2.14453125q0.03515625,0.2021484375,0.0966796875,0.40869140625t0.0615234375,0.39990234375q0,0.140625-0.0966796875,0.23291015625t-0.25048828125,0.14501953125t-0.3076171875,0.0703125t-0.25927734375,0.017578125q-0.3955078125,0-0.66796875-0.1494140625t-0.3603515625-0.5712890625q-0.2373046875-1.1337890625-0.4658203125-2.3818359375q-0.193359375-1.0810546875-0.193359375-2.1005859375q0-0.158203125,0.0087890625-0.31640625q-0.73828125,0-1.4853515625,0.03515625t-1.4326171875,0.263671875q-0.017578125,0.2373046875-0.087890625,0.896484375t-0.158203125,1.4150390625t-0.18017578125,1.44580078125t-0.10986328125,0.97998046875q-0.017578125,0.123046875-0.18017578125,0.23291015625t-0.3515625,0.11865234375t-0.333984375-0.11865234375t-0.14501953125-0.45263671875z M27.583037109375,28.9716796875q0.685546875-0.158203125,1.37548828125-0.1845703125t1.39306640625-0.0615234375q-0.03515625-0.2197265625-0.017578125-0.45263671875t0.017578125-0.47021484375q0-0.5185546875-0.0263671875-1.2041015625t-0.0791015625-1.388671875t-0.13623046875-1.38427734375t-0.18896484375-1.212890625t-0.22412109375-0.84814453125t-0.25927734375-0.31640625q-0.2724609375,0.017578125-0.51416015625,0.47021484375t-0.439453125,1.1513671875t-0.3603515625,1.564453125t-0.2724609375,1.69189453125t-0.18017578125,1.5380859375t-0.087890625,1.107421875z M34.76080078125,23.93115234375q-0.017578125-0.23291015625,0.03955078125-0.439453125t0.21533203125-0.3427734375t0.5361328125-0.13623046875q0.087890625,0,0.21533203125,0.017578125t0.2548828125,0.05712890625t0.20654296875,0.10986328125t0.0791015625,0.193359375q0,0.3251953125,0.02197265625,0.85693359375t0.05712890625,1.107421875t0.06591796875,1.125t0.05712890625,0.89208984375q0.685546875-0.03515625,1.3798828125-0.03515625t1.37109375-0.03515625l1.212890625-0.03515625l0-0.8701171875q0-1.458984375-0.05712890625-2.92236328125t-0.19775390625-2.92236328125q0-0.10546875,0.087890625-0.17138671875t0.20654296875-0.10107421875t0.24609375-0.0439453125t0.19775390625-0.0087890625q0.2021484375,0,0.43505859375,0.0615234375t0.26806640625,0.263671875l0.052734375,0.3779296875q0.2197265625,1.58203125,0.298828125,3.12890625t0.1142578125,3.09375q0.10546875,0.017578125,0.22412109375,0.05712890625t0.24169921875,0.07470703125q0.087890625,0.03515625,0.25048828125,0.10546875t0.16259765625,0.2197265625q0,0.140625-0.123046875,0.2197265625t-0.27685546875,0.11865234375t-0.298828125,0.04833984375t-0.18017578125,0.0087890625q0.017578125,0.650390625,0.017578125,1.29638671875l0,1.29638671875l0,2.8388671875l0,1.58203125q0,0.10546875-0.10107421875,0.18896484375t-0.24169921875,0.13623046875t-0.29443359375,0.0703125t-0.27685546875,0.017578125t-0.2900390625-0.017578125t-0.298828125-0.0703125t-0.23291015625-0.1318359375t-0.10107421875-0.193359375l0-0.3779296875q0.03515625-1.669921875,0.0791015625-3.30908203125t0.087890625-3.29150390625q-0.9580078125,0.03515625-1.94677734375,0.0439453125t-1.96435546875,0.0439453125q0.10546875,1.2392578125,0.24169921875,2.47412109375t0.28564453125,2.47412109375q0,0.10546875-0.10107421875,0.18896484375t-0.2373046875,0.13623046875t-0.2900390625,0.0703125t-0.27685546875,0.017578125q-0.2548828125,0-0.55810546875-0.087890625t-0.33837890625-0.3251953125q-0.10546875-0.931640625-0.19775390625-2.056640625t-0.16259765625-2.29833984375t-0.10986328125-2.29833984375t-0.03955078125-2.0390625q0-0.2197265625-0.017578125-0.45263671875z M44.751064453125,34.2978515625q0-0.052734375,0.03515625-0.37353515625t0.09228515625-0.7822265625t0.12744140625-0.9931640625t0.123046875-1.00634765625t0.09228515625-0.8349609375t0.03955078125-0.4833984375q-0.0703125-0.03515625-0.17138671875-0.10107421875t-0.10107421875-0.15380859375q0-0.123046875,0.11865234375-0.19775390625t0.20654296875-0.10986328125q0.03515625-0.4482421875,0.087890625-1.248046875t0.16259765625-1.72705078125t0.3076171875-1.880859375t0.52294921875-1.7314453125t0.7822265625-1.27001953125t1.125-0.4921875t1.107421875,0.421875t0.71630859375,1.0986328125t0.421875,1.5029296875t0.2197265625,1.6435546875t0.09228515625,1.529296875t0.03515625,1.142578125q0.017578125,0.2724609375,0.1318359375,0.36474609375t0.25048828125,0.12744140625t0.24609375,0.0791015625t0.10986328125,0.2197265625q0,0.2021484375-0.24609375,0.28125t-0.38671875,0.0966796875q0.087890625,1.0986328125,0.24169921875,2.162109375t0.40869140625,2.14453125q0.03515625,0.2021484375,0.0966796875,0.40869140625t0.0615234375,0.39990234375q0,0.140625-0.0966796875,0.23291015625t-0.25048828125,0.14501953125t-0.3076171875,0.0703125t-0.25927734375,0.017578125q-0.3955078125,0-0.66796875-0.1494140625t-0.3603515625-0.5712890625q-0.2373046875-1.1337890625-0.4658203125-2.3818359375q-0.193359375-1.0810546875-0.193359375-2.1005859375q0-0.158203125,0.0087890625-0.31640625q-0.73828125,0-1.4853515625,0.03515625t-1.4326171875,0.263671875q-0.017578125,0.2373046875-0.087890625,0.896484375t-0.158203125,1.4150390625t-0.18017578125,1.44580078125t-0.10986328125,0.97998046875q-0.017578125,0.123046875-0.18017578125,0.23291015625t-0.3515625,0.11865234375t-0.333984375-0.11865234375t-0.14501953125-0.45263671875z M46.394619140625,28.9716796875q0.685546875-0.158203125,1.37548828125-0.1845703125t1.39306640625-0.0615234375q-0.03515625-0.2197265625-0.017578125-0.45263671875t0.017578125-0.47021484375q0-0.5185546875-0.0263671875-1.2041015625t-0.0791015625-1.388671875t-0.13623046875-1.38427734375t-0.18896484375-1.212890625t-0.22412109375-0.84814453125t-0.25927734375-0.31640625q-0.2724609375,0.017578125-0.51416015625,0.47021484375t-0.439453125,1.1513671875t-0.3603515625,1.564453125t-0.2724609375,1.69189453125t-0.18017578125,1.5380859375t-0.087890625,1.107421875z M53.6075390625,22.458984375q0-0.4130859375,0.10107421875-0.60205078125t0.2900390625-0.263671875t0.45703125-0.05712890625t0.62841796875,0.017578125q0.9140625,0,1.845703125,0.28125t1.6787109375,0.82177734375t1.2041015625,1.33154296875t0.45703125,1.8193359375q0,0.685546875-0.19775390625,1.29638671875t-0.55810546875,1.142578125t-0.84375,0.97119140625t-1.0634765625,0.7646484375q0.2373046875,0.2373046875,0.615234375,0.83935546875t0.7470703125,1.283203125t0.65478515625,1.32275390625t0.33837890625,0.966796875l-0.10546875,0.158203125q-0.2373046875,0.140625-0.5712890625,0.1494140625q-0.158203125,0-0.4130859375-0.03955078125t-0.3251953125-0.23291015625q-0.3603515625-1.0107421875-0.78662109375-2.0830078125t-1.05029296875-1.93359375l0-0.017578125q-0.2197265625,0.087890625-0.43505859375,0.17138671875t-0.43505859375,0.15380859375q0.0703125,0.9755859375,0.14501953125,1.92041015625t0.07470703125,1.91162109375q0,0.123046875-0.11865234375,0.19775390625t-0.26806640625,0.11865234375t-0.30322265625,0.0615234375t-0.25048828125,0.017578125q-0.087890625,0-0.25048828125-0.017578125t-0.31201171875-0.0615234375t-0.25927734375-0.12744140625t-0.10986328125-0.22412109375q0-0.9755859375-0.0439453125-1.94677734375t-0.0966796875-1.93798828125q-0.2724609375-0.17578125-0.2724609375-0.45703125q0-0.2197265625,0.2109375-0.298828125q-0.10546875-1.8544921875-0.24169921875-3.7001953125t-0.13623046875-3.7177734375z M55.198359375,22.1865234375q0.123046875,1.9072265625,0.27685546875,3.7705078125t0.29443359375,3.7705078125q0.615234375-0.17578125,1.14697265625-0.61083984375t0.91845703125-0.97998046875t0.60205078125-1.1865234375t0.21533203125-1.2744140625q0-0.703125-0.28125-1.34912109375t-0.7470703125-1.12939453125q-0.474609375-0.4833984375-1.08984375-0.755859375q-0.544921875-0.2373046875-1.142578125-0.2373046875l-0.158203125,0z M62.068505859375,32.830078125q0-0.3076171875,0.2109375-0.39111328125t0.45703125-0.08349609375q0.4306640625,0,0.7294921875,0.38671875t0.56689453125,0.84814453125t0.53173828125,0.84814453125t0.6240234375,0.38671875q0.2724609375,0,0.49658203125-0.13623046875t0.38671875-0.3427734375t0.25048828125-0.4658203125t0.087890625-0.51416015625q0-0.66796875-0.26806640625-1.3798828125t-0.685546875-1.4677734375t-0.88330078125-1.546875t-0.87890625-1.6083984375t-0.685546875-1.66552734375t-0.2724609375-1.70947265625q0-1.2919921875,0.7734375-2.00390625t2.0390625-0.7119140625q0.4306640625,0,0.8701171875,0.123046875t0.80859375,0.369140625t0.60205078125,0.6064453125t0.23291015625,0.84375q0,0.158203125-0.23291015625,0.20654296875t-0.33837890625,0.04833984375q-0.158203125,0-0.3427734375-0.03955078125t-0.2373046875-0.21533203125t-0.1494140625-0.404296875t-0.24169921875-0.42626953125t-0.3427734375-0.3427734375t-0.43505859375-0.14501953125q-0.3955078125,0-0.67236328125,0.16259765625t-0.4482421875,0.43505859375t-0.2548828125,0.61083984375t-0.08349609375,0.69873046875q0,0.84375,0.2900390625,1.70068359375t0.720703125,1.705078125t0.93603515625,1.67431640625t0.93603515625,1.6083984375t0.720703125,1.529296875t0.2900390625,1.4150390625q0,0.59765625-0.28125,1.0107421875t-0.7119140625,0.67236328125t-0.95361328125,0.3779296875t-1.02392578125,0.11865234375q-0.5361328125,0-1.0986328125-0.21533203125t-1.0107421875-0.59326171875t-0.73828125-0.88330078125t-0.2900390625-1.09423828125z M69.94060546875,23.93115234375q-0.017578125-0.23291015625,0.03955078125-0.439453125t0.21533203125-0.3427734375t0.5361328125-0.13623046875q0.087890625,0,0.21533203125,0.017578125t0.2548828125,0.05712890625t0.20654296875,0.10986328125t0.0791015625,0.193359375q0,0.3251953125,0.02197265625,0.85693359375t0.05712890625,1.107421875t0.06591796875,1.125t0.05712890625,0.89208984375q0.685546875-0.03515625,1.3798828125-0.03515625t1.37109375-0.03515625l1.212890625-0.03515625l0-0.8701171875q0-1.458984375-0.05712890625-2.92236328125t-0.19775390625-2.92236328125q0-0.10546875,0.087890625-0.17138671875t0.20654296875-0.10107421875t0.24609375-0.0439453125t0.19775390625-0.0087890625q0.2021484375,0,0.43505859375,0.0615234375t0.26806640625,0.263671875l0.052734375,0.3779296875q0.2197265625,1.58203125,0.298828125,3.12890625t0.1142578125,3.09375q0.10546875,0.017578125,0.22412109375,0.05712890625t0.24169921875,0.07470703125q0.087890625,0.03515625,0.25048828125,0.10546875t0.16259765625,0.2197265625q0,0.140625-0.123046875,0.2197265625t-0.27685546875,0.11865234375t-0.298828125,0.04833984375t-0.18017578125,0.0087890625q0.017578125,0.650390625,0.017578125,1.29638671875l0,1.29638671875l0,2.8388671875l0,1.58203125q0,0.10546875-0.10107421875,0.18896484375t-0.24169921875,0.13623046875t-0.29443359375,0.0703125t-0.27685546875,0.017578125t-0.2900390625-0.017578125t-0.298828125-0.0703125t-0.23291015625-0.1318359375t-0.10107421875-0.193359375l0-0.3779296875q0.03515625-1.669921875,0.0791015625-3.30908203125t0.087890625-3.29150390625q-0.9580078125,0.03515625-1.94677734375,0.0439453125t-1.96435546875,0.0439453125q0.10546875,1.2392578125,0.24169921875,2.47412109375t0.28564453125,2.47412109375q0,0.10546875-0.10107421875,0.18896484375t-0.2373046875,0.13623046875t-0.2900390625,0.0703125t-0.27685546875,0.017578125q-0.2548828125,0-0.55810546875-0.087890625t-0.33837890625-0.3251953125q-0.10546875-0.931640625-0.19775390625-2.056640625t-0.16259765625-2.29833984375t-0.10986328125-2.29833984375t-0.03955078125-2.0390625q0-0.2197265625-0.017578125-0.45263671875z M79.983603515625,34.376953125q0.03515625-1.8369140625,0.15380859375-3.6650390625t0.20654296875-3.6650390625q0.017578125-0.703125,0.017578125-1.27880859375t0.05712890625-0.99755859375t0.2109375-0.64599609375t0.51416015625-0.22412109375q0.3076171875,0,0.4658203125,0.087890625t0.24169921875,0.22412109375t0.10107421875,0.3076171875t0.017578125,0.34716796875q0,0.2548828125,0.017578125,0.50537109375t0.017578125,0.50537109375q0,1.8544921875-0.10107421875,3.7001953125t-0.10107421875,3.7177734375q0,0.2724609375,0.0087890625,0.54931640625t0.0087890625,0.56689453125q0,0.10546875-0.0966796875,0.17578125t-0.24169921875,0.11865234375t-0.3076171875,0.06591796875t-0.26806640625,0.017578125q-0.123046875,0-0.27685546875-0.017578125t-0.298828125-0.07470703125t-0.24609375-0.13623046875t-0.10107421875-0.1845703125z M80.475791015625,22.458984375q0-0.087890625,0.0263671875-0.19775390625t0.0615234375-0.19775390625q0.017578125-0.10546875,0.052734375-0.3603515625t0.12744140625-0.49658203125t0.2548828125-0.4306640625t0.46142578125-0.18896484375l0.1669921875,0q0.140625,0.03515625,0.28564453125,0.087890625t0.14501953125,0.2548828125q0,0.087890625-0.0087890625,0.1669921875t-0.0263671875,0.17578125q-0.0703125,0.5185546875-0.13623046875,0.8173828125t-0.15380859375,0.45263671875t-0.22412109375,0.19775390625t-0.34716796875,0.0615234375q-0.0703125,0-0.18896484375-0.0087890625t-0.228515625-0.0439453125t-0.18896484375-0.10986328125t-0.0791015625-0.18017578125z M87.303486328125,22.09423828125q-0.02197265625-0.26806640625,0.03515625-0.4658203125t0.228515625-0.3251953125t0.54931640625-0.12744140625l1.4150390625,0q0.2900390625,0,0.76025390625,0.03076171875t1.0107421875,0.09228515625t1.07666015625,0.18896484375t0.97998046875,0.31640625t0.720703125,0.4658203125t0.27685546875,0.65478515625q0,0.5361328125-0.31201171875,1.00634765625t-0.7822265625,0.84814453125t-0.9931640625,0.67236328125t-0.93603515625,0.53173828125q1.634765625,0.3603515625,2.5576171875,1.494140625t0.9228515625,2.830078125q0,0.896484375-0.3427734375,1.77099609375t-0.93603515625,1.57763671875t-1.40625,1.1337890625t-1.74462890625,0.4306640625q-0.123046875,0-0.27685546875-0.0263671875t-0.28125-0.08349609375t-0.2197265625-0.16259765625t-0.09228515625-0.2724609375q0-0.7734375,0.8349609375-0.7734375q0.140625,0,0.32958984375,0.03955078125t0.29443359375,0.16259765625q0.4833984375-0.2021484375,0.88330078125-0.6416015625t0.6767578125-0.97998046875t0.4306640625-1.1337890625t0.15380859375-1.07666015625q0-0.580078125-0.17138671875-1.18212890625t-0.49658203125-1.1162109375t-0.7998046875-0.86572265625t-1.08984375-0.439453125q-0.158203125-0.017578125-0.34716796875-0.0263671875l-0.3779296875-0.017578125t-0.369140625-0.052734375t-0.31201171875-0.140625q0.0703125,1.458984375,0.18017578125,2.9091796875t0.29443359375,2.9091796875q0.0703125,0.0703125,0.0966796875,0.20654296875t0.0439453125,0.2900390625t0.017578125,0.29443359375l0,0.2373046875q0,0.158203125-0.10546875,0.25927734375t-0.25048828125,0.16259765625t-0.3076171875,0.0791015625t-0.28564453125,0.017578125q-0.3955078125,0-0.6064453125-0.10546875t-0.298828125-0.3076171875t-0.1142578125-0.46142578125t-0.0439453125-0.56689453125q-0.2373046875-2.4521484375-0.3427734375-4.8515625t-0.10546875-4.8515625q0-0.2900390625-0.02197265625-0.55810546875z M88.925068359375,21.720703125q0,1.0810546875,0.0703125,2.16650390625t0.123046875,2.16650390625q0.3955078125-0.2373046875,1.037109375-0.55810546875t1.24365234375-0.70751953125t1.03271484375-0.8525390625t0.4306640625-1.0107421875q0-0.4306640625-0.509765625-0.65478515625t-1.1865234375-0.333984375t-1.32275390625-0.13623046875t-0.91845703125-0.0791015625z M96.56865234375,23.93115234375q-0.017578125-0.23291015625,0.03955078125-0.439453125t0.21533203125-0.3427734375t0.5361328125-0.13623046875q0.087890625,0,0.21533203125,0.017578125t0.2548828125,0.05712890625t0.20654296875,0.10986328125t0.0791015625,0.193359375q0,0.3251953125,0.02197265625,0.85693359375t0.05712890625,1.107421875t0.06591796875,1.125t0.05712890625,0.89208984375q0.685546875-0.03515625,1.3798828125-0.03515625t1.37109375-0.03515625l1.212890625-0.03515625l0-0.8701171875q0-1.458984375-0.05712890625-2.92236328125t-0.19775390625-2.92236328125q0-0.10546875,0.087890625-0.17138671875t0.20654296875-0.10107421875t0.24609375-0.0439453125t0.19775390625-0.0087890625q0.2021484375,0,0.43505859375,0.0615234375t0.26806640625,0.263671875l0.052734375,0.3779296875q0.2197265625,1.58203125,0.298828125,3.12890625t0.1142578125,3.09375q0.10546875,0.017578125,0.22412109375,0.05712890625t0.24169921875,0.07470703125q0.087890625,0.03515625,0.25048828125,0.10546875t0.16259765625,0.2197265625q0,0.140625-0.123046875,0.2197265625t-0.27685546875,0.11865234375t-0.298828125,0.04833984375t-0.18017578125,0.0087890625q0.017578125,0.650390625,0.017578125,1.29638671875l0,1.29638671875l0,2.8388671875l0,1.58203125q0,0.10546875-0.10107421875,0.18896484375t-0.24169921875,0.13623046875t-0.29443359375,0.0703125t-0.27685546875,0.017578125t-0.2900390625-0.017578125t-0.298828125-0.0703125t-0.23291015625-0.1318359375t-0.10107421875-0.193359375l0-0.3779296875q0.03515625-1.669921875,0.0791015625-3.30908203125t0.087890625-3.29150390625q-0.9580078125,0.03515625-1.94677734375,0.0439453125t-1.96435546875,0.0439453125q0.10546875,1.2392578125,0.24169921875,2.47412109375t0.28564453125,2.47412109375q0,0.10546875-0.10107421875,0.18896484375t-0.2373046875,0.13623046875t-0.2900390625,0.0703125t-0.27685546875,0.017578125q-0.2548828125,0-0.55810546875-0.087890625t-0.33837890625-0.3251953125q-0.10546875-0.931640625-0.19775390625-2.056640625t-0.16259765625-2.29833984375t-0.10986328125-2.29833984375t-0.03955078125-2.0390625q0-0.2197265625-0.017578125-0.45263671875z M106.55891601563,34.2978515625q0-0.052734375,0.03515625-0.37353515625t0.09228515625-0.7822265625t0.12744140625-0.9931640625t0.123046875-1.00634765625t0.09228515625-0.8349609375t0.03955078125-0.4833984375q-0.0703125-0.03515625-0.17138671875-0.10107421875t-0.10107421875-0.15380859375q0-0.123046875,0.11865234375-0.19775390625t0.20654296875-0.10986328125q0.03515625-0.4482421875,0.087890625-1.248046875t0.16259765625-1.72705078125t0.3076171875-1.880859375t0.52294921875-1.7314453125t0.7822265625-1.27001953125t1.125-0.4921875t1.107421875,0.421875t0.71630859375,1.0986328125t0.421875,1.5029296875t0.2197265625,1.6435546875t0.09228515625,1.529296875t0.03515625,1.142578125q0.017578125,0.2724609375,0.1318359375,0.36474609375t0.25048828125,0.12744140625t0.24609375,0.0791015625t0.10986328125,0.2197265625q0,0.2021484375-0.24609375,0.28125t-0.38671875,0.0966796875q0.087890625,1.0986328125,0.24169921875,2.162109375t0.40869140625,2.14453125q0.03515625,0.2021484375,0.0966796875,0.40869140625t0.0615234375,0.39990234375q0,0.140625-0.0966796875,0.23291015625t-0.25048828125,0.14501953125t-0.3076171875,0.0703125t-0.25927734375,0.017578125q-0.3955078125,0-0.66796875-0.1494140625t-0.3603515625-0.5712890625q-0.2373046875-1.1337890625-0.4658203125-2.3818359375q-0.193359375-1.0810546875-0.193359375-2.1005859375q0-0.158203125,0.0087890625-0.31640625q-0.73828125,0-1.4853515625,0.03515625t-1.4326171875,0.263671875q-0.017578125,0.2373046875-0.087890625,0.896484375t-0.158203125,1.4150390625t-0.18017578125,1.44580078125t-0.10986328125,0.97998046875q-0.017578125,0.123046875-0.18017578125,0.23291015625t-0.3515625,0.11865234375t-0.333984375-0.11865234375t-0.14501953125-0.45263671875z M108.20247070313,28.9716796875q0.685546875-0.158203125,1.37548828125-0.1845703125t1.39306640625-0.0615234375q-0.03515625-0.2197265625-0.017578125-0.45263671875t0.017578125-0.47021484375q0-0.5185546875-0.0263671875-1.2041015625t-0.0791015625-1.388671875t-0.13623046875-1.38427734375t-0.18896484375-1.212890625t-0.22412109375-0.84814453125t-0.25927734375-0.31640625q-0.2724609375,0.017578125-0.51416015625,0.47021484375t-0.439453125,1.1513671875t-0.3603515625,1.564453125t-0.2724609375,1.69189453125t-0.18017578125,1.5380859375t-0.087890625,1.107421875z M114.8792578125,21.9931640625q0-0.123046875,0.17138671875-0.18896484375t0.22412109375-0.06591796875l0.3251953125-0.052734375q0.3251953125-0.052734375,0.6591796875-0.09228515625t0.650390625-0.07470703125q1.1162109375-0.140625,2.232421875-0.27685546875t2.25-0.13623046875q0.087890625,0,0.24169921875,0.0087890625t0.3076171875,0.04833984375t0.263671875,0.10986328125t0.10986328125,0.193359375q0,0.087890625-0.08349609375,0.15380859375t-0.19775390625,0.10107421875t-0.23291015625,0.0439453125t-0.18896484375,0.0087890625l-0.15380859375,0t-0.15380859375-0.03515625q-0.4658203125,0-0.91845703125,0.0439453125t-0.91845703125,0.0791015625q0.123046875,0.140625,0.1318359375,0.3955078125t0.017578125,0.439453125q0,3.111328125,0.0439453125,6.1875t0.0791015625,6.2138671875l0,0.017578125q-0.2900390625,0.2548828125-0.49658203125,0.3251953125t-0.41748046875,0.0703125q-0.2021484375,0-0.40869140625-0.07470703125t-0.49658203125-0.32080078125l0-0.017578125l0.0703125-6.8994140625q0-0.685546875-0.017578125-1.51171875t-0.017578125-1.67431640625t0.0263671875-1.63916015625t0.140625-1.3798828125q-0.5185546875,0.052734375-1.0986328125,0.158203125q-0.5009765625,0.087890625-0.9580078125,0.087890625l-0.158203125,0q-0.03515625,0-0.20654296875,0.0087890625t-0.3515625-0.0087890625t-0.3251953125-0.0703125t-0.14501953125-0.17578125z M123.03260742187,21.9931640625q0-0.123046875,0.17138671875-0.18896484375t0.22412109375-0.06591796875l0.3251953125-0.052734375q0.3251953125-0.052734375,0.6591796875-0.09228515625t0.650390625-0.07470703125q1.1162109375-0.140625,2.232421875-0.27685546875t2.25-0.13623046875q0.087890625,0,0.24169921875,0.0087890625t0.3076171875,0.04833984375t0.263671875,0.10986328125t0.10986328125,0.193359375q0,0.087890625-0.08349609375,0.15380859375t-0.19775390625,0.10107421875t-0.23291015625,0.0439453125t-0.18896484375,0.0087890625l-0.15380859375,0t-0.15380859375-0.03515625q-0.4658203125,0-0.91845703125,0.0439453125t-0.91845703125,0.0791015625q0.123046875,0.140625,0.1318359375,0.3955078125t0.017578125,0.439453125q0,3.111328125,0.0439453125,6.1875t0.0791015625,6.2138671875l0,0.017578125q-0.2900390625,0.2548828125-0.49658203125,0.3251953125t-0.41748046875,0.0703125q-0.2021484375,0-0.40869140625-0.07470703125t-0.49658203125-0.32080078125l0-0.017578125l0.0703125-6.8994140625q0-0.685546875-0.017578125-1.51171875t-0.017578125-1.67431640625t0.0263671875-1.63916015625t0.140625-1.3798828125q-0.5185546875,0.052734375-1.0986328125,0.158203125q-0.5009765625,0.087890625-0.9580078125,0.087890625l-0.158203125,0q-0.03515625,0-0.20654296875,0.0087890625t-0.3515625-0.0087890625t-0.3251953125-0.0703125t-0.14501953125-0.17578125z"/><path fill="#" d=""/></svg>
